<?xml version="1.0" encoding="UTF-8" standalone="no"?>
<!-- Created with Inkscape (http://www.inkscape.org/) -->

<svg
   version="1.1"
   id="svg1"
   width="1602.696"
   height="480.97269"
   viewBox="0 0 1602.696 480.97268"
   sodipodi:docname="banner1.svg"
   inkscape:version="1.4 (86a8ad7, 2024-10-11)"
   inkscape:export-filename="banner1.png"
   inkscape:export-xdpi="96"
   inkscape:export-ydpi="96"
   xmlns:inkscape="http://www.inkscape.org/namespaces/inkscape"
   xmlns:sodipodi="http://sodipodi.sourceforge.net/DTD/sodipodi-0.dtd"
   xmlns:xlink="http://www.w3.org/1999/xlink"
   xmlns="http://www.w3.org/2000/svg"
   xmlns:svg="http://www.w3.org/2000/svg">
  <defs
     id="defs1">
    <linearGradient
       inkscape:collect="always"
       xlink:href="#linearGradient21"
       id="linearGradient22"
       x1="1793.0776"
       y1="570.14191"
       x2="1708.8032"
       y2="732.00806"
       gradientUnits="userSpaceOnUse" />
    <linearGradient
       id="linearGradient21"
       inkscape:collect="always">
      <stop
         style="stop-color:#371e65;stop-opacity:1;"
         offset="0"
         id="stop21" />
      <stop
         style="stop-color:#000000;stop-opacity:0;"
         offset="1"
         id="stop22" />
    </linearGradient>
    <linearGradient
       inkscape:collect="always"
       xlink:href="#linearGradient19"
       id="linearGradient20"
       x1="1670.2543"
       y1="672.10065"
       x2="1622.5411"
       y2="811.4007"
       gradientUnits="userSpaceOnUse" />
    <linearGradient
       id="linearGradient19"
       inkscape:collect="always">
      <stop
         style="stop-color:#351d60;stop-opacity:1;"
         offset="0"
         id="stop19" />
      <stop
         style="stop-color:#351d60;stop-opacity:0;"
         offset="1"
         id="stop20" />
    </linearGradient>
    <linearGradient
       inkscape:collect="always"
       xlink:href="#linearGradient11"
       id="linearGradient12"
       x1="1823.8959"
       y1="1227.5402"
       x2="1932.2122"
       y2="1351.9178"
       gradientUnits="userSpaceOnUse" />
    <linearGradient
       id="linearGradient11"
       inkscape:collect="always">
      <stop
         style="stop-color:#aa0cf3;stop-opacity:1;"
         offset="0"
         id="stop11" />
      <stop
         style="stop-color:#808080;stop-opacity:0;"
         offset="1"
         id="stop12" />
    </linearGradient>
  </defs>
  <sodipodi:namedview
     id="namedview1"
     pagecolor="#ffffff"
     bordercolor="#000000"
     borderopacity="0.25"
     inkscape:showpageshadow="2"
     inkscape:pageopacity="0.0"
     inkscape:pagecheckerboard="0"
     inkscape:deskcolor="#d1d1d1"
     inkscape:zoom="2.2624378"
     inkscape:cx="684.8807"
     inkscape:cy="273.37768"
     inkscape:window-width="1920"
     inkscape:window-height="1111"
     inkscape:window-x="-9"
     inkscape:window-y="-9"
     inkscape:window-maximized="1"
     inkscape:current-layer="g32"
     showguides="true">
    <inkscape:page
       x="1.4866588e-07"
       y="0"
       width="1602.696"
       height="480.97269"
       id="page1"
       margin="0 0 252.82463"
       bleed="0" />
  </sodipodi:namedview>
  <g
     inkscape:groupmode="layer"
     inkscape:label="Image"
     id="g1"
     transform="translate(-5.3040133)">
    <g
       id="g32"
       inkscape:label="oscuro"
       transform="matrix(0.23904479,0,0,0.23904479,367.40096,-129.64464)"
       style="fill:#808080">
      <g
         id="g20"
         inkscape:label="fondo">
        <path
           style="fill:#22133e;fill-opacity:1;stroke-width:0.932957"
           d="m 240.61596,1878.584 678.95883,-210.3546 c 0,0 164.32501,30.6739 270.26021,46.8041 0,0 345.4413,-253.1183 416.613,-257.3338 0,0 158.9503,-212.0364 267.582,-193.3264 0,0 442.4413,74.6647 490.6876,107.909 0,0 239.1773,192.6622 239.8199,221.6819 0,0 271.0781,83.7382 318.7401,90.6011 l 143.9301,-55.9762 c 0,0 424.3155,209.6778 487.6896,210.9139 l 243.9372,50.0264 z"
           id="path13"
           sodipodi:nodetypes="cccccccccccc" />
        <path
           style="fill:#351d60;fill-opacity:1"
           d="m -234.75945,1827.1639 348.00198,17.5423 342.13424,-144.8215 678.82253,152.7351 562.857,-189.5047 599.6265,209.3037 574.1707,-124.4508 517.6022,113.137 305.4701,-104.6518 1473.6105,212.1321 -1397.2134,3.95 -3561.01961,26.9374 -1716.85499,48.3086 z"
           id="path14"
           sodipodi:nodetypes="cccccccccccccc" />
        <path
           style="display:inline;fill:#4d2a8b;fill-opacity:1"
           d="m -1006.9201,2084.5508 1209.43404,-172.5397 29.52422,-17.7348 88.0688,-52.9017 330.43128,79.1274 489.31786,-132.9361 461.0336,113.1371 446.8915,19.799 415.7788,-141.4213 610.9403,101.8233 319.6122,-149.9066 1453.8116,364.8671 c 0,0 -1165.312,42.4264 -1247.3364,130.1077 0,0 -789.1311,-5.6569 -1004.0916,220.6173 0,0 -1100.2582,-237.5879 -1490.5811,-48.0833 0,0 -1086.116008,-313.9554 -1230.36579,-237.5879 0,0 -517.60217,-98.995 -882.46931,-76.3675 z"
           id="path15"
           sodipodi:nodetypes="ccccccccccccccccc" />
      </g>
      <path
         style="display:inline;fill:#9572d5;fill-opacity:1"
         d="m 1813.0294,2055.1727 c 0,0 9.1375,61.6781 -110.4113,29.6969 0,0 -160.6675,30.4583 -178.181,-62.4395 0,0 15.9906,-31.2198 82.9989,-15.9906 0,0 43.403,-27.4125 64.7238,-23.6052 0,0 25.1281,-23.6052 28.9354,-22.0822 0,0 43.403,-46.4489 -21.3208,-333.5183 0,0 -3.0988,-27.0154 24.8997,-64.7056 l 96.9177,-212.142 c 0,0 -5.3844,-32.3059 21.5372,-194.9122 0,0 -65.6886,-30.1522 -50.6125,-101.2252 l -44.1514,-50.6125 c 0,0 26.9215,-30.15217 33.3827,-30.15217 6.4612,0 -32.3059,-106.60944 -35.5365,-142.14592 0,0 -19.9763,-8.01271 -47.9598,-0.77887 0,0 -23.9859,11.99295 -23.6052,-22.46298 0,0 -13.8966,-6.85312 -10.0893,-22.46299 0,0 -20.369,-0.57109 -13.3255,-17.51351 0,0 -3.8073,-7.80493 -13.3255,-3.42656 0,0 -25.3185,0.95183 -4.9495,-39.4054 0,0 -0.9518,-62.24912 9.7086,-90.6134 0,0 64.7792,-115.08812 182.6957,-32.16967 0,0 37.6902,38.76707 36.6133,156.14513 0,0 42.5361,-32.84432 47.9204,-31.76745 0,0 9.6918,-2.69216 17.2298,2.69215 0,0 13.4608,-10.76863 34.4596,-3.23059 0,0 118.9934,-2.15372 153.9914,108.22473 -1.6152,3.23059 3.2306,2.15373 -3.769,14.53765 0,0 44.1514,32.30589 52.2279,101.76355 0,0 -9.6918,25.84472 8.6149,87.7643 0,0 -23.691,66.2271 -35.5365,74.842 0,0 -0.5384,15.0761 -3.2306,15.6145 0,0 13.4608,-20.9988 39.3055,55.4585 0,0 12.9224,5.9227 16.153,25.8447 0,0 65.1502,41.9976 29.6137,103.3788 0,0 16.1529,108.2248 -8.0765,129.2236 0,0 14.5377,177.6824 2.6922,195.989 l -3.769,5.9228 c 0,0 10.7686,24.7678 13.9992,54.3816 0,0 16.1529,5.9227 30.1521,20.9988 0,0 59.7659,5.9227 100.6867,81.3032 0,0 37.1518,34.4596 72.6883,86.6874 0,0 51.151,-27.46 74.3035,10.2302 0,0 15.0761,44.6898 0,86.6875 0,0 -3.2306,30.6906 1.6153,73.7651 0,0 -18.3067,100.1483 -89.918,93.6871 0,0 -55.4585,-5.3843 -21.5373,-92.6102 0,0 -8.0765,-140.5307 -51.6894,-156.1452 0,0 -140.5306,-91.5333 -197.0659,-107.1478 0,0 -53.3048,-21.5373 -65.1503,-100.6867 0,0 -18.3066,-59.7659 -22.6141,-61.3812 0,0 -60.8427,-8.6149 -69.4576,-14.5377 0,0 4.3074,-79.1494 -29.0753,-28.5368 0,0 -22.0757,-29.6138 -34.4597,-31.2291 0,0 -84.5337,63.535 -85.0721,68.3808 0,0 -12.384,20.4604 -5.9228,51.6895 0,0 22.6141,83.9953 -6.4612,132.9925 0,0 4.3075,40.3824 -9.1533,50.6126 0,0 -1.0769,107.6863 -5.3843,125.993 0,0 10.4914,51.1104 22.7447,65.1299 z"
         id="path1" />
      <path
         style="fill:url(#linearGradient22);fill-opacity:1"
         d="m 1841.9648,751.55817 c 0,0 5.7109,-75.76498 -15.2292,-110.03055 0,0 3.4266,-5.3302 1.9037,-10.6604 0,0 19.4171,20.55934 24.3666,-9.51822 0,0 9.5182,-9.89894 1.5229,-20.55934 0,0 -7.6146,-24.36663 -22.463,-4.94947 0,0 -8.7567,-1.14219 -9.8989,3.80728 0,0 -9.1375,-3.80728 -13.7063,3.80729 0,0 -102.4159,-95.18214 -180.846,21.70153 0,0 46.8296,-30.07756 89.8519,57.10928 0,0 69.2926,-41.88014 80.3337,15.60987 0,0 -17.1326,53.302 44.1646,53.68273 z"
         id="path8"
         sodipodi:nodetypes="cccccccccccc" />
      <path
         style="display:inline;fill:url(#linearGradient20);fill-opacity:1"
         d="m 1602.3721,701.57623 c 0,0 2.6922,15.61451 9.6918,25.30628 0,0 3.769,-6.99961 2.6921,-16.15295 0,0 10.479,24.17173 23.8997,21.03072 0,0 34.6463,-28.93537 34.8367,-33.50411 0,0 3.2362,-15.22914 -0.7615,-19.22679 0,0 78.4301,-32.93302 127.9248,15.03878 0,0 4.7591,5.52056 2.094,-2.47474 0,0 -31.9812,-47.59107 -124.879,-30.45828 0,0 -53.5307,-4.97211 -75.4986,40.44109 z"
         id="path2" />
      <path
         style="display:inline;fill:#6839be;fill-opacity:1;stroke-width:1.03432"
         d="m 1728.2865,1493.7943 64.7007,-141.6225 c 0,0 202.0138,31.7526 165.2577,95.2403 0,0 262.4492,-21.1712 237.3881,0.5483 0,0 15.0367,183.7804 2.7845,202.7153 l -3.8982,6.126 c 0,0 -21.7986,13.3641 -73.545,11.9494 0,0 -81.833,-20.8599 -86.2883,-22.5306 0,0 -62.9308,-8.9107 -71.8413,-15.0366 0,0 4.4552,-81.8658 -30.0733,-29.5163 0,0 -62.3274,-24.7791 -75.1364,-26.4498 0,0 -66.3749,-25.0735 -92.7203,-34.7494 -21.7065,-7.9723 -36.6282,-46.6741 -36.6282,-46.6741 z"
         id="path1-9-2"
         sodipodi:nodetypes="cccccccccccsc" />
      <path
         style="display:inline;fill:#4d2a8b;fill-opacity:1;stroke-width:1.022"
         d="m 1947.6552,1446.5361 c -56.104,-16.1355 -149.8677,-90.6191 -149.8677,-90.6191 0,0 -5.5028,-33.0167 22.011,-199.2003 0,0 -67.1337,-30.8156 -51.7259,-103.4522 l -45.1228,-51.726 c 0,0 27.5138,-30.81552 34.1171,-30.81552 6.6034,0 -33.0166,-108.95484 -36.3183,-145.27313 0,0 28.3547,21.10585 118.3097,-74.28739 0,0 43.4718,-33.56689 48.9746,-32.46633 0,0 9.905,-2.75139 17.6089,2.75138 0,0 13.7569,-11.00555 35.2177,-3.30167 0,0 121.6112,-2.2011 157.3792,110.60567 -1.6508,3.30166 3.3016,2.20112 -3.852,14.85748 0,0 45.1227,33.01662 53.377,104.00235 0,0 -9.905,26.41329 8.8044,89.69516 0,0 -24.2122,67.6841 -36.3184,76.4885 0,0 -0.5501,15.4078 -3.3016,15.958 0,0 13.7569,-21.4607 40.1702,56.6787 0,0 13.2067,6.0529 16.5084,26.4133 0,0 66.5835,42.9216 30.2652,105.653 0,0 16.5082,110.6058 -8.2542,132.0666 0,0 -168.5313,18.8216 -247.9825,-4.0285 z"
         id="path1-9"
         sodipodi:nodetypes="sccccscccccccccccccccs" />
      <path
         style="fill:#351d60;fill-opacity:1;stroke-width:1.02628"
         d="m 2061.1249,864.13631 c 0,0 31.1799,-22.04917 33.548,-19.7282 0,0 59.2023,41.77737 54.4662,101.73564 0,0 -8.2884,46.03247 10.2616,91.29135 0,0 -25.2597,74.2708 -37.8894,75.8182 0,0 2.7627,15.8599 -1.5787,16.2468 0,0 -43.4152,22.0491 -56.8343,21.6623 -20.3182,-0.5856 -228.5209,18.5676 -243.1241,5.8024 0,0 -70.6481,-22.8229 -55.6502,-104.4434 0,0 -91.1715,-70.78952 -9.0777,-82.78117 l 26.8383,0.77366 c 0,0 -16.9712,-11.60483 -2.7627,-15.08628 0,0 -18.1553,-22.43599 -16.5766,-26.6911 0,0 13.0245,-10.05752 17.7606,-9.28386 0,0 13.814,15.85993 17.3662,22.43599 0,0 8.2883,-3.86827 13.8138,1.54732 0,0 237.5985,-86.26255 249.439,-79.29965 z"
         id="path9"
         sodipodi:nodetypes="ccccccscccccccccc" />
      <path
         style="display:inline;fill:#5d32a8;fill-opacity:1"
         d="m 1837.6667,1437.7073 c 0,0 -61.9197,61.3812 -96.3793,-8.6149 0,0 -4.3074,-48.4589 60.3044,-135.6848 0,0 18.3066,-26.9215 19.9219,-34.4596 0,0 -4.8459,-22.0757 17.2298,-35.5365 0,0 10.2302,-15.6145 32.8443,-34.998 0,0 -15.076,-23.1526 5.9228,-27.46 0,0 16.1529,-17.2298 20.9988,-16.6914 0,0 9.1534,-76.4573 28.5369,-82.38 0,0 -18.8451,-24.7679 -26.9216,-52.7663 0,0 -60.3043,-10.23021 -95.3024,-132.99259 0,0 9.1534,-165.29847 121.6856,-96.37924 0,0 129.2235,64.61178 135.6847,97.4561 0,0 24.2294,86.14904 13.4608,104.45571 0,0 19.3835,174.99022 -73.2267,270.29262 0,0 -37.1518,23.1526 -93.6871,26.3831 0,0 -17.7682,32.3059 -34.4596,30.1522 0,0 0,48.4588 -20.4604,76.9957 0,0 -13.9991,38.7671 -16.1529,52.2279 z"
         id="path3" />
      <path
         style="display:inline;fill:#9572d5;fill-opacity:1;stroke-width:1.0341"
         d="m 1836.9156,1441.9934 c 0,0 -64.0313,63.4745 -99.6661,-8.9087 0,0 -4.4543,-50.1114 62.3609,-140.3119 0,0 18.9309,-27.8396 20.6013,-35.6348 -3.7093,-20.6209 90.9192,48.9015 54.5658,51.225 0,0 0,50.1114 -21.1582,79.6214 0,0 -14.4765,40.0892 -16.7037,54.009 z"
         id="path3-1"
         sodipodi:nodetypes="ccccccc" />
      <path
         style="display:inline;fill:#b00dc8;fill-opacity:1;stroke-width:1.01818"
         d="m 1856.3718,1287.5287 c 0,0 19.3173,10.9459 17.3439,22.3678 0,0 19.4466,1.1421 30.4981,-23.6052 0,0 -15.8944,-6.0916 -21.8148,-25.8895 0,0 1.0077,-6.282 -2.1499,-9.8989 0.9764,21.6464 -8.836,30.9205 -23.8773,37.0258 z"
         id="path4"
         sodipodi:nodetypes="cccccc" />
      <circle
         style="display:inline;fill:#950ba9;fill-opacity:1;stroke-width:0.982954"
         id="path5"
         cx="1847.6757"
         cy="1255.6427"
         r="32.933022" />
      <g
         id="g10"
         style="display:inline;fill:url(#linearGradient12)" />
    </g>
  </g>
</svg>
